<svg width="205" height="56" viewBox="0 0 205 56" fill="none" xmlns="http://www.w3.org/2000/svg">
<g clip-path="url(#clip0_426_1696)">
<path d="M47.6546 28.4046C47.6554 27.2441 47.4284 26.0949 46.9866 25.0224C46.5448 23.95 45.8967 22.9753 45.0795 22.1542C44.2623 21.333 43.2918 20.6814 42.2236 20.2366C41.1554 19.7917 40.0104 19.5623 38.8538 19.5615H38.3288H28.0278L23.8399 15.3469L13.5765 25.6639H38.8538C39.36 25.6673 39.8553 25.8119 40.2844 26.0814C40.7135 26.3509 41.0595 26.7347 41.2838 27.1901C41.5081 27.6454 41.6019 28.1544 41.5547 28.6601C41.5075 29.1658 41.3212 29.6484 41.0165 30.0541H41.0665L40.1227 31.0011L23.7899 47.4518L17.6831 41.1048H9.03857L23.8587 56.0001L45.1106 34.6763C45.9273 33.8519 46.5727 32.873 47.0094 31.7964C47.4461 30.7198 47.6654 29.5669 47.6546 28.4046Z" fill="#FF4D1D"/>
<path d="M9.32602 36.4323H19.627L23.8148 40.6469L34.0783 30.3362H8.80097C8.29476 30.3327 7.79947 30.1882 7.37038 29.9187C6.94129 29.6492 6.59528 29.2653 6.37097 28.81C6.14665 28.3546 6.05286 27.8457 6.10007 27.34C6.14727 26.8343 6.3336 26.3517 6.63827 25.946H6.58827L7.5321 24.999L23.8649 8.5546L30.0029 14.8953H38.6162L23.7961 0L2.5754 21.3238C1.34277 22.5599 0.502748 24.1347 0.16136 25.8494C-0.180027 27.5641 -0.00747187 29.3419 0.657244 30.9583C1.32196 32.5747 2.44904 33.9573 3.89621 34.9316C5.34337 35.9058 7.04576 36.428 8.78847 36.4323C8.96349 36.4323 9.1385 36.4323 9.31352 36.4323H9.32602Z" fill="#FF4D1D"/>
<path d="M58.8369 33.7293L60.087 30.9572C61.4452 31.6539 62.9382 32.0455 64.4624 32.1049C65.6625 32.1049 66.3814 31.7474 66.3814 30.9196C66.3814 30.0917 65.6313 29.8032 64.0561 29.4771C61.0746 28.8938 59.0557 27.9844 59.0557 25.2499C59.0557 22.666 60.7871 21.004 64.2749 21.004C66.0351 20.9654 67.7811 21.3278 69.3816 22.0639L68.0315 24.7858C66.8421 24.2847 65.5706 24.0083 64.2812 23.9705C63.1373 23.9705 62.481 24.3343 62.481 25.0116C62.481 25.8583 63.5123 26.1217 65.4625 26.5419C68.0565 27.0687 69.8379 27.9342 69.8379 30.6499C69.8379 33.3655 68.1878 34.9899 64.5999 34.9899C62.6056 35.0431 60.6282 34.6106 58.8369 33.7293Z" fill="white"/>
<path d="M83.0952 26.2721C83.0952 29.8407 81.0075 31.4086 77.2322 31.4086H75.357V34.7075H72.0754V21.3237H77.4259C81.1013 21.3237 83.0952 23.0296 83.0952 26.2721ZM79.6761 26.385C79.6761 24.9174 79.0011 24.1585 77.2322 24.1585H75.357V28.5989H77.1572C78.9636 28.5989 79.6761 27.7083 79.6761 26.385Z" fill="white"/>
<path d="M84.8391 28.0095C84.8391 23.8952 87.7456 21.0103 92.0648 21.0103C96.3839 21.0103 99.3092 23.8325 99.3092 28.0095C99.3092 32.1864 96.4214 34.9899 92.0648 34.9899C87.8206 34.9899 84.8391 32.1613 84.8391 28.0095ZM95.8589 28.0095C95.8589 25.6889 94.3712 24.1022 92.0648 24.1022C89.7583 24.1022 88.3144 25.6513 88.3144 28.0095C88.3144 30.3676 89.8021 31.8979 92.0648 31.8979C92.5766 31.9231 93.088 31.8392 93.5652 31.6515C94.0424 31.4639 94.4745 31.1769 94.833 30.8095C95.1915 30.442 95.4683 30.0025 95.6452 29.5198C95.822 29.0372 95.8948 28.5224 95.8589 28.0095Z" fill="white"/>
<path d="M109.654 34.7075L107.254 31.1828H105.203V34.7075H101.922V21.3237H107.441C111.135 21.3237 113.129 23.0798 113.129 26.2658C113.129 28.3982 112.229 29.8156 110.629 30.5682L113.673 34.7389L109.654 34.7075ZM105.203 28.4358H107.122C108.941 28.4358 109.673 27.5327 109.673 26.4414C109.673 24.9488 108.979 24.1711 107.216 24.1711H105.203V28.4358Z" fill="white"/>
<path d="M118.761 24.3906H114.686V21.3237H126.137V24.4219H122.099V34.7075H118.761V24.3906Z" fill="white"/>
<path d="M139.163 31.6908V34.7075H127.843V33.1835L134.094 24.3153H128.237V21.3237H139.163V22.9293L132.856 31.7097L139.163 31.6908Z" fill="white"/>
<path d="M140.682 27.9717C140.682 23.6505 143.482 21.0289 147.783 21.0289C148.895 20.9891 150.002 21.2007 151.023 21.6479C152.043 22.0951 152.95 22.7667 153.677 23.6128L151.102 25.764C150.741 25.2502 150.26 24.8333 149.7 24.55C149.141 24.2667 148.521 24.1258 147.895 24.1397C145.601 24.1397 144.145 25.5759 144.145 27.9717C144.145 30.3675 145.607 31.8789 147.895 31.8789C148.521 31.9011 149.142 31.7658 149.702 31.4853C150.262 31.2049 150.743 30.7882 151.102 30.2734L153.677 32.4434C152.383 34.0113 150.483 34.9897 147.783 34.9897C143.482 34.9897 140.682 32.3117 140.682 27.9717Z" fill="white"/>
<path d="M155.796 21.3237H159.083V27.0435H164.34V21.3237H167.622V34.7075H164.34V30.0288H159.083V34.7075H155.796V21.3237Z" fill="white"/>
<path d="M179.448 32.5188H174.116L173.141 34.7077H169.541L175.679 21.2737H177.892L184.03 34.7077H180.429L179.448 32.5188ZM175.135 29.8596H178.454L177.704 28.0471L176.785 25.4255L175.885 28.0471L175.135 29.8596Z" fill="white"/>
<path d="M186.148 21.3237H189.511V34.7075H186.148V21.3237Z" fill="white"/>
<path d="M205.019 21.3239V34.7453H203.325L195.949 27.3133V34.7077H192.687V21.2737H194.355L201.731 28.6931V21.3239H205.019Z" fill="white"/>
</g>
<defs>
<clipPath id="clip0_426_1696">
<rect width="205" height="56" fill="white"/>
</clipPath>
</defs>
</svg>
