<?xml version="1.0" standalone="no"?>
<!DOCTYPE svg PUBLIC "-//W3C//DTD SVG 20010904//EN"
 "http://www.w3.org/TR/2001/REC-SVG-20010904/DTD/svg10.dtd">
<svg version="1.0" xmlns="http://www.w3.org/2000/svg"
 width="83.000000pt" height="83.000000pt" viewBox="0 0 83.000000 83.000000"
 preserveAspectRatio="xMidYMid meet">
<metadata>
Created by potrace 1.14, written by Peter Selinger 2001-2017
</metadata>
<g transform="translate(0.000000,83.000000) scale(0.100000,-0.100000)"
fill="#000000" stroke="none">
<path d="M240 660 c-172 -175 -188 -199 -176 -264 7 -37 63 -95 94 -97 9 -1
56 -2 104 -3 82 -2 89 -4 118 -31 l31 -29 74 75 75 74 -186 0 c-158 -1 -190 1
-207 15 -13 11 -17 23 -13 36 3 10 62 75 131 144 l125 124 48 -47 c48 -47 50
-48 106 -45 l57 3 -89 90 c-49 50 -97 97 -108 106 -18 16 -26 9 -184 -151z"/>
<path d="M337 532 c-37 -37 -67 -70 -67 -73 0 -3 83 -6 185 -6 190 0 215 -5
215 -42 0 -9 -58 -75 -130 -146 l-130 -129 -47 46 c-45 43 -51 46 -100 44 -28
0 -54 -3 -56 -6 -3 -3 41 -52 99 -110 l104 -104 160 159 c88 88 167 175 176
194 18 38 14 89 -11 127 -27 42 -70 56 -171 56 -89 0 -94 1 -120 29 -15 16
-30 29 -34 29 -3 0 -36 -30 -73 -68z"/>
</g>
</svg>
