<svg width="20" height="22" viewBox="0 0 20 22" fill="none" xmlns="http://www.w3.org/2000/svg">
<path d="M19.0802 7.58003V14.42C19.0802 15.54 18.4802 16.58 17.5102 17.15L11.5702 20.58C10.6002 21.14 9.40016 21.14 8.42016 20.58L2.48016 17.15C1.51016 16.59 0.910156 15.55 0.910156 14.42V7.58003C0.910156 6.46003 1.51016 5.41999 2.48016 4.84999L8.42016 1.42C9.39016 0.86 10.5902 0.86 11.5702 1.42L17.5102 4.84999C18.4802 5.41999 19.0802 6.45003 19.0802 7.58003Z" stroke="white" stroke-width="1.5" stroke-linecap="round" stroke-linejoin="round"/>
<path d="M9.99992 9.99982C11.2867 9.99982 12.3299 8.95662 12.3299 7.6698C12.3299 6.38298 11.2867 5.33984 9.99992 5.33984C8.7131 5.33984 7.66992 6.38298 7.66992 7.6698C7.66992 8.95662 8.7131 9.99982 9.99992 9.99982Z" stroke="white" stroke-width="1.5" stroke-linecap="round" stroke-linejoin="round"/>
<path d="M14 15.6599C14 13.8599 12.21 12.3999 10 12.3999C7.79 12.3999 6 13.8599 6 15.6599" stroke="white" stroke-width="1.5" stroke-linecap="round" stroke-linejoin="round"/>
</svg>
