<svg width="470" height="253" viewBox="0 0 470 253" fill="none" xmlns="http://www.w3.org/2000/svg">
<g filter="url(#filter0_b_6_2937)">
<path d="M470 0V49.4L447 0H470Z" fill="#A3FF12" fill-opacity="0.3"/>
</g>
<g filter="url(#filter1_b_6_2937)">
<path d="M0 0V253H470V70.7L437 0H0Z" fill="#1E1F35" fill-opacity="0.8"/>
</g>
<g clip-path="url(#clip0_6_2937)">
<path d="M7.4 249L5.5 253H0L1.9 249H7.4ZM10.9 249L9 253H14.5L16.4 249H10.9ZM19.9 249L18 253H23.5L25.4 249H19.9ZM28.9 249L27 253H32.5L34.4 249H28.9ZM37.9 249L36 253H41.5L43.4 249H37.9ZM46.9 249L45 253H50.5L52.4 249H46.9ZM55.9 249L54 253H59.5L61.4 249H55.9ZM64.9 249L63 253H68.5L70.4 249H64.9ZM73.9 249L72 253H77.5L79.4 249H73.9ZM82.9 249L81 253H86.5L88.4 249H82.9ZM91.9 249L90 253H95.5L97.4 249H91.9ZM100.9 249L99 253H104.5L106.4 249H100.9ZM109.9 249L108 253H113.5L115.4 249H109.9ZM118.9 249L117 253H122.5L124.4 249H118.9ZM127.9 249L126 253H131.5L133.4 249H127.9ZM136.9 249L135 253H140.5L142.4 249H136.9ZM145.9 249L144 253H149.5L151.4 249H145.9ZM154.9 249L153 253H158.5L160.4 249H154.9ZM163.9 249L162 253H167.5L169.4 249H163.9ZM172.9 249L171 253H176.5L178.4 249H172.9ZM181.9 249L180 253H185.5L187.4 249H181.9ZM190.9 249L189 253H194.5L196.4 249H190.9ZM199.9 249L198 253H203.5L205.4 249H199.9ZM208.9 249L207 253H212.5L214.4 249H208.9ZM217.9 249L216 253H221.5L223.4 249H217.9ZM226.9 249L225 253H230.5L232.4 249H226.9ZM235.9 249L234 253H239.5L241.4 249H235.9ZM244.9 249L243 253H248.5L250.4 249H244.9ZM253.9 249L252 253H257.5L259.4 249H253.9ZM262.9 249L261 253H266.5L268.4 249H262.9ZM271.9 249L270 253H275.5L277.4 249H271.9ZM280.9 249L279 253H284.5L286.4 249H280.9ZM289.9 249L288 253H293.5L295.4 249H289.9ZM298.9 249L297 253H302.5L304.4 249H298.9ZM307.9 249L306 253H311.5L313.4 249H307.9ZM316.9 249L315 253H320.5L322.4 249H316.9ZM325.9 249L324 253H329.5L331.4 249H325.9ZM334.9 249L333 253H338.5L340.4 249H334.9ZM343.9 249L342 253H347.5L349.4 249H343.9ZM352.9 249L351 253H356.5L358.4 249H352.9ZM361.9 249L360 253H365.5L367.4 249H361.9ZM370.9 249L369 253H374.5L376.4 249H370.9ZM379.9 249L378 253H383.5L385.4 249H379.9ZM388.9 249L387 253H392.5L394.4 249H388.9ZM397.9 249L396 253H401.5L403.4 249H397.9ZM406.9 249L405 253H410.5L412.4 249H406.9ZM415.9 249L414 253H419.5L421.4 249H415.9Z" fill="url(#paint0_linear_6_2937)" fill-opacity="0.1"/>
</g>
<defs>
<filter id="filter0_b_6_2937" x="442" y="-5" width="33" height="59.4" filterUnits="userSpaceOnUse" color-interpolation-filters="sRGB">
<feFlood flood-opacity="0" result="BackgroundImageFix"/>
<feGaussianBlur in="BackgroundImage" stdDeviation="2.5"/>
<feComposite in2="SourceAlpha" operator="in" result="effect1_backgroundBlur_6_2937"/>
<feBlend mode="normal" in="SourceGraphic" in2="effect1_backgroundBlur_6_2937" result="shape"/>
</filter>
<filter id="filter1_b_6_2937" x="-5" y="-5" width="480" height="263" filterUnits="userSpaceOnUse" color-interpolation-filters="sRGB">
<feFlood flood-opacity="0" result="BackgroundImageFix"/>
<feGaussianBlur in="BackgroundImage" stdDeviation="2.5"/>
<feComposite in2="SourceAlpha" operator="in" result="effect1_backgroundBlur_6_2937"/>
<feBlend mode="normal" in="SourceGraphic" in2="effect1_backgroundBlur_6_2937" result="shape"/>
</filter>
<linearGradient id="paint0_linear_6_2937" x1="0" y1="251" x2="421.382" y2="251" gradientUnits="userSpaceOnUse">
<stop stop-color="white"/>
<stop offset="1" stop-color="white" stop-opacity="0"/>
</linearGradient>
<clipPath id="clip0_6_2937">
<rect width="421.4" height="4" fill="white" transform="translate(0 249)"/>
</clipPath>
</defs>
</svg>
