<svg width="470" height="253" viewBox="0 0 470 253" fill="none" xmlns="http://www.w3.org/2000/svg">
<g filter="url(#filter0_b_6_2969)">
<path d="M0 0V49.4L23 0H0Z" fill="#A3FF12" fill-opacity="0.3"/>
</g>
<g filter="url(#filter1_b_6_2969)">
<path d="M470 0V253H0V70.7L33 0H470Z" fill="#1E1F35" fill-opacity="0.8"/>
</g>
<g clip-path="url(#clip0_6_2969)">
<path d="M55.4 249L53.5 253H48L49.9 249H55.4ZM58.9 249L57 253H62.5L64.4 249H58.9ZM67.9 249L66 253H71.5L73.4 249H67.9ZM76.9 249L75 253H80.5L82.4 249H76.9ZM85.9 249L84 253H89.5L91.4 249H85.9ZM94.9 249L93 253H98.5L100.4 249H94.9ZM103.9 249L102 253H107.5L109.4 249H103.9ZM112.9 249L111 253H116.5L118.4 249H112.9ZM121.9 249L120 253H125.5L127.4 249H121.9ZM130.9 249L129 253H134.5L136.4 249H130.9ZM139.9 249L138 253H143.5L145.4 249H139.9ZM148.9 249L147 253H152.5L154.4 249H148.9ZM157.9 249L156 253H161.5L163.4 249H157.9ZM166.9 249L165 253H170.5L172.4 249H166.9ZM175.9 249L174 253H179.5L181.4 249H175.9ZM184.9 249L183 253H188.5L190.4 249H184.9ZM193.9 249L192 253H197.5L199.4 249H193.9ZM202.9 249L201 253H206.5L208.4 249H202.9ZM211.9 249L210 253H215.5L217.4 249H211.9ZM220.9 249L219 253H224.5L226.4 249H220.9ZM229.9 249L228 253H233.5L235.4 249H229.9ZM238.9 249L237 253H242.5L244.4 249H238.9ZM247.9 249L246 253H251.5L253.4 249H247.9ZM256.9 249L255 253H260.5L262.4 249H256.9ZM265.9 249L264 253H269.5L271.4 249H265.9ZM274.9 249L273 253H278.5L280.4 249H274.9ZM283.9 249L282 253H287.5L289.4 249H283.9ZM292.9 249L291 253H296.5L298.4 249H292.9ZM301.9 249L300 253H305.5L307.4 249H301.9ZM310.9 249L309 253H314.5L316.4 249H310.9ZM319.9 249L318 253H323.5L325.4 249H319.9ZM328.9 249L327 253H332.5L334.4 249H328.9ZM337.9 249L336 253H341.5L343.4 249H337.9ZM346.9 249L345 253H350.5L352.4 249H346.9ZM355.9 249L354 253H359.5L361.4 249H355.9ZM364.9 249L363 253H368.5L370.4 249H364.9ZM373.9 249L372 253H377.5L379.4 249H373.9ZM382.9 249L381 253H386.5L388.4 249H382.9ZM391.9 249L390 253H395.5L397.4 249H391.9ZM400.9 249L399 253H404.5L406.4 249H400.9ZM409.9 249L408 253H413.5L415.4 249H409.9ZM418.9 249L417 253H422.5L424.4 249H418.9ZM427.9 249L426 253H431.5L433.4 249H427.9ZM436.9 249L435 253H440.5L442.4 249H436.9ZM445.9 249L444 253H449.5L451.4 249H445.9ZM454.9 249L453 253H458.5L460.4 249H454.9ZM463.9 249L462 253H467.5L469.4 249H463.9Z" fill="url(#paint0_linear_6_2969)" fill-opacity="0.1"/>
</g>
<defs>
<filter id="filter0_b_6_2969" x="-5" y="-5" width="33" height="59.4" filterUnits="userSpaceOnUse" color-interpolation-filters="sRGB">
<feFlood flood-opacity="0" result="BackgroundImageFix"/>
<feGaussianBlur in="BackgroundImage" stdDeviation="2.5"/>
<feComposite in2="SourceAlpha" operator="in" result="effect1_backgroundBlur_6_2969"/>
<feBlend mode="normal" in="SourceGraphic" in2="effect1_backgroundBlur_6_2969" result="shape"/>
</filter>
<filter id="filter1_b_6_2969" x="-5" y="-5" width="480" height="263" filterUnits="userSpaceOnUse" color-interpolation-filters="sRGB">
<feFlood flood-opacity="0" result="BackgroundImageFix"/>
<feGaussianBlur in="BackgroundImage" stdDeviation="2.5"/>
<feComposite in2="SourceAlpha" operator="in" result="effect1_backgroundBlur_6_2969"/>
<feBlend mode="normal" in="SourceGraphic" in2="effect1_backgroundBlur_6_2969" result="shape"/>
</filter>
<linearGradient id="paint0_linear_6_2969" x1="48" y1="251" x2="469.382" y2="251" gradientUnits="userSpaceOnUse">
<stop stop-color="white" stop-opacity="0"/>
<stop offset="1" stop-color="white"/>
</linearGradient>
<clipPath id="clip0_6_2969">
<rect width="421.4" height="4" fill="white" transform="translate(48 249)"/>
</clipPath>
</defs>
</svg>
