<svg width="470" height="290" viewBox="0 0 470 290" fill="none" xmlns="http://www.w3.org/2000/svg">
<g filter="url(#filter0_b_6_2981)">
<path d="M470 0V49.4L447 0H470Z" fill="#A3FF12" fill-opacity="0.3"/>
</g>
<g filter="url(#filter1_b_6_2981)">
<path d="M0 0V290H470V70.7L437 0H0Z" fill="#1E1F35" fill-opacity="0.8"/>
</g>
<g clip-path="url(#clip0_6_2981)">
<path d="M7.4 286L5.5 290H0L1.9 286H7.4ZM10.9 286L9 290H14.5L16.4 286H10.9ZM19.9 286L18 290H23.5L25.4 286H19.9ZM28.9 286L27 290H32.5L34.4 286H28.9ZM37.9 286L36 290H41.5L43.4 286H37.9ZM46.9 286L45 290H50.5L52.4 286H46.9ZM55.9 286L54 290H59.5L61.4 286H55.9ZM64.9 286L63 290H68.5L70.4 286H64.9ZM73.9 286L72 290H77.5L79.4 286H73.9ZM82.9 286L81 290H86.5L88.4 286H82.9ZM91.9 286L90 290H95.5L97.4 286H91.9ZM100.9 286L99 290H104.5L106.4 286H100.9ZM109.9 286L108 290H113.5L115.4 286H109.9ZM118.9 286L117 290H122.5L124.4 286H118.9ZM127.9 286L126 290H131.5L133.4 286H127.9ZM136.9 286L135 290H140.5L142.4 286H136.9ZM145.9 286L144 290H149.5L151.4 286H145.9ZM154.9 286L153 290H158.5L160.4 286H154.9ZM163.9 286L162 290H167.5L169.4 286H163.9ZM172.9 286L171 290H176.5L178.4 286H172.9ZM181.9 286L180 290H185.5L187.4 286H181.9ZM190.9 286L189 290H194.5L196.4 286H190.9ZM199.9 286L198 290H203.5L205.4 286H199.9ZM208.9 286L207 290H212.5L214.4 286H208.9ZM217.9 286L216 290H221.5L223.4 286H217.9ZM226.9 286L225 290H230.5L232.4 286H226.9ZM235.9 286L234 290H239.5L241.4 286H235.9ZM244.9 286L243 290H248.5L250.4 286H244.9ZM253.9 286L252 290H257.5L259.4 286H253.9ZM262.9 286L261 290H266.5L268.4 286H262.9ZM271.9 286L270 290H275.5L277.4 286H271.9ZM280.9 286L279 290H284.5L286.4 286H280.9ZM289.9 286L288 290H293.5L295.4 286H289.9ZM298.9 286L297 290H302.5L304.4 286H298.9ZM307.9 286L306 290H311.5L313.4 286H307.9ZM316.9 286L315 290H320.5L322.4 286H316.9ZM325.9 286L324 290H329.5L331.4 286H325.9ZM334.9 286L333 290H338.5L340.4 286H334.9ZM343.9 286L342 290H347.5L349.4 286H343.9ZM352.9 286L351 290H356.5L358.4 286H352.9ZM361.9 286L360 290H365.5L367.4 286H361.9ZM370.9 286L369 290H374.5L376.4 286H370.9ZM379.9 286L378 290H383.5L385.4 286H379.9ZM388.9 286L387 290H392.5L394.4 286H388.9ZM397.9 286L396 290H401.5L403.4 286H397.9ZM406.9 286L405 290H410.5L412.4 286H406.9ZM415.9 286L414 290H419.5L421.4 286H415.9Z" fill="url(#paint0_linear_6_2981)" fill-opacity="0.1"/>
</g>
<defs>
<filter id="filter0_b_6_2981" x="442" y="-5" width="33" height="59.4" filterUnits="userSpaceOnUse" color-interpolation-filters="sRGB">
<feFlood flood-opacity="0" result="BackgroundImageFix"/>
<feGaussianBlur in="BackgroundImage" stdDeviation="2.5"/>
<feComposite in2="SourceAlpha" operator="in" result="effect1_backgroundBlur_6_2981"/>
<feBlend mode="normal" in="SourceGraphic" in2="effect1_backgroundBlur_6_2981" result="shape"/>
</filter>
<filter id="filter1_b_6_2981" x="-5" y="-5" width="480" height="300" filterUnits="userSpaceOnUse" color-interpolation-filters="sRGB">
<feFlood flood-opacity="0" result="BackgroundImageFix"/>
<feGaussianBlur in="BackgroundImage" stdDeviation="2.5"/>
<feComposite in2="SourceAlpha" operator="in" result="effect1_backgroundBlur_6_2981"/>
<feBlend mode="normal" in="SourceGraphic" in2="effect1_backgroundBlur_6_2981" result="shape"/>
</filter>
<linearGradient id="paint0_linear_6_2981" x1="0" y1="288" x2="421.382" y2="288" gradientUnits="userSpaceOnUse">
<stop stop-color="white"/>
<stop offset="1" stop-color="white" stop-opacity="0"/>
</linearGradient>
<clipPath id="clip0_6_2981">
<rect width="421.4" height="4" fill="white" transform="translate(0 286)"/>
</clipPath>
</defs>
</svg>
