<svg width="470" height="216" viewBox="0 0 470 216" fill="none" xmlns="http://www.w3.org/2000/svg">
<g filter="url(#filter0_b_6_2959)">
<path d="M0 0V49.4L23 0H0Z" fill="#A3FF12" fill-opacity="0.3"/>
</g>
<g filter="url(#filter1_b_6_2959)">
<path d="M33 0L0 70.7V216H470V0H33Z" fill="#1E1F35" fill-opacity="0.8"/>
</g>
<g clip-path="url(#clip0_6_2959)">
<path d="M55.4 212L53.5 216H48L49.9 212H55.4ZM58.9 212L57 216H62.5L64.4 212H58.9ZM67.9 212L66 216H71.5L73.4 212H67.9ZM76.9 212L75 216H80.5L82.4 212H76.9ZM85.9 212L84 216H89.5L91.4 212H85.9ZM94.9 212L93 216H98.5L100.4 212H94.9ZM103.9 212L102 216H107.5L109.4 212H103.9ZM112.9 212L111 216H116.5L118.4 212H112.9ZM121.9 212L120 216H125.5L127.4 212H121.9ZM130.9 212L129 216H134.5L136.4 212H130.9ZM139.9 212L138 216H143.5L145.4 212H139.9ZM148.9 212L147 216H152.5L154.4 212H148.9ZM157.9 212L156 216H161.5L163.4 212H157.9ZM166.9 212L165 216H170.5L172.4 212H166.9ZM175.9 212L174 216H179.5L181.4 212H175.9ZM184.9 212L183 216H188.5L190.4 212H184.9ZM193.9 212L192 216H197.5L199.4 212H193.9ZM202.9 212L201 216H206.5L208.4 212H202.9ZM211.9 212L210 216H215.5L217.4 212H211.9ZM220.9 212L219 216H224.5L226.4 212H220.9ZM229.9 212L228 216H233.5L235.4 212H229.9ZM238.9 212L237 216H242.5L244.4 212H238.9ZM247.9 212L246 216H251.5L253.4 212H247.9ZM256.9 212L255 216H260.5L262.4 212H256.9ZM265.9 212L264 216H269.5L271.4 212H265.9ZM274.9 212L273 216H278.5L280.4 212H274.9ZM283.9 212L282 216H287.5L289.4 212H283.9ZM292.9 212L291 216H296.5L298.4 212H292.9ZM301.9 212L300 216H305.5L307.4 212H301.9ZM310.9 212L309 216H314.5L316.4 212H310.9ZM319.9 212L318 216H323.5L325.4 212H319.9ZM328.9 212L327 216H332.5L334.4 212H328.9ZM337.9 212L336 216H341.5L343.4 212H337.9ZM346.9 212L345 216H350.5L352.4 212H346.9ZM355.9 212L354 216H359.5L361.4 212H355.9ZM364.9 212L363 216H368.5L370.4 212H364.9ZM373.9 212L372 216H377.5L379.4 212H373.9ZM382.9 212L381 216H386.5L388.4 212H382.9ZM391.9 212L390 216H395.5L397.4 212H391.9ZM400.9 212L399 216H404.5L406.4 212H400.9ZM409.9 212L408 216H413.5L415.4 212H409.9ZM418.9 212L417 216H422.5L424.4 212H418.9ZM427.9 212L426 216H431.5L433.4 212H427.9ZM436.9 212L435 216H440.5L442.4 212H436.9ZM445.9 212L444 216H449.5L451.4 212H445.9ZM454.9 212L453 216H458.5L460.4 212H454.9ZM463.9 212L462 216H467.5L469.4 212H463.9Z" fill="url(#paint0_linear_6_2959)" fill-opacity="0.1"/>
</g>
<defs>
<filter id="filter0_b_6_2959" x="-5" y="-5" width="33" height="59.4" filterUnits="userSpaceOnUse" color-interpolation-filters="sRGB">
<feFlood flood-opacity="0" result="BackgroundImageFix"/>
<feGaussianBlur in="BackgroundImage" stdDeviation="2.5"/>
<feComposite in2="SourceAlpha" operator="in" result="effect1_backgroundBlur_6_2959"/>
<feBlend mode="normal" in="SourceGraphic" in2="effect1_backgroundBlur_6_2959" result="shape"/>
</filter>
<filter id="filter1_b_6_2959" x="-5" y="-5" width="480" height="226" filterUnits="userSpaceOnUse" color-interpolation-filters="sRGB">
<feFlood flood-opacity="0" result="BackgroundImageFix"/>
<feGaussianBlur in="BackgroundImage" stdDeviation="2.5"/>
<feComposite in2="SourceAlpha" operator="in" result="effect1_backgroundBlur_6_2959"/>
<feBlend mode="normal" in="SourceGraphic" in2="effect1_backgroundBlur_6_2959" result="shape"/>
</filter>
<linearGradient id="paint0_linear_6_2959" x1="48" y1="214" x2="469.382" y2="214" gradientUnits="userSpaceOnUse">
<stop stop-color="white" stop-opacity="0"/>
<stop offset="1" stop-color="white"/>
</linearGradient>
<clipPath id="clip0_6_2959">
<rect width="421.4" height="4" fill="white" transform="translate(48 212)"/>
</clipPath>
</defs>
</svg>
