<svg width="470" height="216" viewBox="0 0 470 216" fill="none" xmlns="http://www.w3.org/2000/svg">
<g filter="url(#filter0_b_6_2948)">
<path d="M470 0V49.4L447 0H470Z" fill="#A3FF12" fill-opacity="0.3"/>
</g>
<g filter="url(#filter1_b_6_2948)">
<path d="M437 0L470 70.7V216H0V0H437Z" fill="#1E1F35" fill-opacity="0.8"/>
</g>
<g clip-path="url(#clip0_6_2948)">
<path d="M7.4 212L5.5 216H0L1.9 212H7.4ZM10.9 212L9 216H14.5L16.4 212H10.9ZM19.9 212L18 216H23.5L25.4 212H19.9ZM28.9 212L27 216H32.5L34.4 212H28.9ZM37.9 212L36 216H41.5L43.4 212H37.9ZM46.9 212L45 216H50.5L52.4 212H46.9ZM55.9 212L54 216H59.5L61.4 212H55.9ZM64.9 212L63 216H68.5L70.4 212H64.9ZM73.9 212L72 216H77.5L79.4 212H73.9ZM82.9 212L81 216H86.5L88.4 212H82.9ZM91.9 212L90 216H95.5L97.4 212H91.9ZM100.9 212L99 216H104.5L106.4 212H100.9ZM109.9 212L108 216H113.5L115.4 212H109.9ZM118.9 212L117 216H122.5L124.4 212H118.9ZM127.9 212L126 216H131.5L133.4 212H127.9ZM136.9 212L135 216H140.5L142.4 212H136.9ZM145.9 212L144 216H149.5L151.4 212H145.9ZM154.9 212L153 216H158.5L160.4 212H154.9ZM163.9 212L162 216H167.5L169.4 212H163.9ZM172.9 212L171 216H176.5L178.4 212H172.9ZM181.9 212L180 216H185.5L187.4 212H181.9ZM190.9 212L189 216H194.5L196.4 212H190.9ZM199.9 212L198 216H203.5L205.4 212H199.9ZM208.9 212L207 216H212.5L214.4 212H208.9ZM217.9 212L216 216H221.5L223.4 212H217.9ZM226.9 212L225 216H230.5L232.4 212H226.9ZM235.9 212L234 216H239.5L241.4 212H235.9ZM244.9 212L243 216H248.5L250.4 212H244.9ZM253.9 212L252 216H257.5L259.4 212H253.9ZM262.9 212L261 216H266.5L268.4 212H262.9ZM271.9 212L270 216H275.5L277.4 212H271.9ZM280.9 212L279 216H284.5L286.4 212H280.9ZM289.9 212L288 216H293.5L295.4 212H289.9ZM298.9 212L297 216H302.5L304.4 212H298.9ZM307.9 212L306 216H311.5L313.4 212H307.9ZM316.9 212L315 216H320.5L322.4 212H316.9ZM325.9 212L324 216H329.5L331.4 212H325.9ZM334.9 212L333 216H338.5L340.4 212H334.9ZM343.9 212L342 216H347.5L349.4 212H343.9ZM352.9 212L351 216H356.5L358.4 212H352.9ZM361.9 212L360 216H365.5L367.4 212H361.9ZM370.9 212L369 216H374.5L376.4 212H370.9ZM379.9 212L378 216H383.5L385.4 212H379.9ZM388.9 212L387 216H392.5L394.4 212H388.9ZM397.9 212L396 216H401.5L403.4 212H397.9ZM406.9 212L405 216H410.5L412.4 212H406.9ZM415.9 212L414 216H419.5L421.4 212H415.9Z" fill="url(#paint0_linear_6_2948)" fill-opacity="0.1"/>
</g>
<defs>
<filter id="filter0_b_6_2948" x="442" y="-5" width="33" height="59.4" filterUnits="userSpaceOnUse" color-interpolation-filters="sRGB">
<feFlood flood-opacity="0" result="BackgroundImageFix"/>
<feGaussianBlur in="BackgroundImage" stdDeviation="2.5"/>
<feComposite in2="SourceAlpha" operator="in" result="effect1_backgroundBlur_6_2948"/>
<feBlend mode="normal" in="SourceGraphic" in2="effect1_backgroundBlur_6_2948" result="shape"/>
</filter>
<filter id="filter1_b_6_2948" x="-5" y="-5" width="480" height="226" filterUnits="userSpaceOnUse" color-interpolation-filters="sRGB">
<feFlood flood-opacity="0" result="BackgroundImageFix"/>
<feGaussianBlur in="BackgroundImage" stdDeviation="2.5"/>
<feComposite in2="SourceAlpha" operator="in" result="effect1_backgroundBlur_6_2948"/>
<feBlend mode="normal" in="SourceGraphic" in2="effect1_backgroundBlur_6_2948" result="shape"/>
</filter>
<linearGradient id="paint0_linear_6_2948" x1="0" y1="214" x2="421.382" y2="214" gradientUnits="userSpaceOnUse">
<stop stop-color="white"/>
<stop offset="1" stop-color="white" stop-opacity="0"/>
</linearGradient>
<clipPath id="clip0_6_2948">
<rect width="421.4" height="4" fill="white" transform="translate(0 212)"/>
</clipPath>
</defs>
</svg>
